# xmcd
#
# Track frame offsets: 
#        150
#        13843
#        26476
#        39623
#        52068
#        66938
#        78511
#        88279
#        99676
#        112126
#        125671
#        136960
#        147329
#        161096
#        171927
#        185891
#        195943
#        204708
#        216771
#        227886
#        241995
#        254658
#        266436
#        279548
#        295733
#
# Disc length: 4070 seconds
#
# Revision: 0
# Processed by: cddbd v1.5.2PL0 Copyright (c) Steve Scherf et al.
# Submitted via: ExactAudioCopy v1.0b3
#
DISCID=8d0fe419
DTITLE=Various Artist - Chess Pieces Volume 2
DYEAR=2001
DGENRE=Soul
TTITLE0=Etta James and Sugar Pie DeSanto - Do I Make Myself Clear
TTITLE1=Love and Brotherhood - Find Another Him
TTITLE2=Andy Mack - Later Than You Think
TTITLE3=Mitty Collier - My Party
TTITLE4=Sonny Cox - The Wailer
TTITLE5=Johnny Twist - Nobody Knows Love But You
TTITLE6=Fontella Bass - Lucky In Love
TTITLE7=James Phelps - Oh What A Feeling
TTITLE8=Prince Curtis - Pretty Pat
TTITLE9=The Dells - Over Again
TTITLE10=Tommy and Cleve - Boo-Go-Loo Baby
TTITLE11=Gloria Brown - Looking For My Baby
TTITLE12=Mitty Collier - (Looking Out The Window) Watching And Waiting
TTITLE13=Doris and Joe - I Can't Understand
TTITLE14=Sugar Pie DeSanto - I Dont Wanna Fuss
TTITLE15=Denise La Salle - Count Down (And Fly Me To The Moon)
TTITLE16=Knight Bros - City Life
TTITLE17=Billy Young - You Left The Water Running
TTITLE18=Babara Carr - Dont Knock Love
TTITLE19=Maurice and The Radiants - I Gotta Dance To Keep My Baby
TTITLE20=Fred Parris and The Restless Hearts - Walk A Little Faster
TTITLE21=Gospel Classics - More Love Is What We Need
TTITLE22=Billy Stewart - No Girl
TTITLE23=Baby Washington - Is It Worth It
TTITLE24=Eddy Jacobs - Turn Me Loose
EXTD=
EXTT0=
EXTT1=
EXTT2=
EXTT3=
EXTT4=
EXTT5=
EXTT6=
EXTT7=
EXTT8=
EXTT9=
EXTT10=
EXTT11=
EXTT12=
EXTT13=
EXTT14=
EXTT15=
EXTT16=
EXTT17=
EXTT18=
EXTT19=
EXTT20=
EXTT21=
EXTT22=
EXTT23=
EXTT24=
PLAYORDER=
